inDegrees=yes
name=IMU_IK_results.mot
DataType=double
version=3
OpenSimVersion=4.4-2022-08-12-dcf8e2cb1
endheader
time	TH_y	TH_x	TH_z	TH_x_trans	TH_y_trans	TH_z_trans	SC_y	SC_z	SC_x	AC_y	AC_z	AC_x	GH_y	GH_z	GH_x	EL_x	PS_y
68.24999999999801	-169.7920946090893	-0.1755445486214471	10.01829454132186	0	0	0	-21.7838553708739	6.302535746439055	0	46.29498984657052	4.898789148368539	-1.180293057969496	-4.435571816625149	63.88529442144632	-15.46945729556339	102.1194430646016	127.5860054831299
68.25999999999802	-169.7542084692659	-0.1564160470965801	10.03849766167009	0	0	0	-21.7838553708739	6.302535746439055	0	46.29498984657052	4.898789148368539	-1.180293057969496	-4.55125239824236	64.11024284963592	-15.39745028720276	102.2073724960953	127.5344003414621
68.26999999999802	-169.7086837436837	-0.09614437886297594	10.06805966054452	0	0	0	-21.7838553708739	6.302535746439055	0	46.29498984657052	4.898789148368539	-1.180293057969496	-4.546197036597418	64.18004400957076	-15.36597006446694	102.2187237633383	127.561840515907
68.27999999999803	-169.6649444916822	-0.07832139886809601	10.08831789629496	0	0	0	-21.7838553708739	6.302535746439055	0	46.29498984657052	4.898789148368539	-1.180293057969496	-4.757531662728179	64.33601201501861	-15.20396083595237	102.3151121533454	127.4831134349749
68.28999999999803	-169.6198487380395	-0.02154466466244725	10.09849346288442	0	0	0	-21.7838553708739	6.302535746439055	0	46.29498984657052	4.898789148368539	-1.180293057969496	-4.751387062546943	64.36666920714868	-15.16721029181035	102.3284030252925	127.4924094756893
68.29999999999804	-169.5752815080969	-0.0125674858559226	10.12512335615706	0	0	0	-21.7838553708739	6.302535746439055	0	46.29498984657052	4.898789148368539	-1.180293057969496	-5.012078624180596	64.44489481849392	-14.9322525973209	102.3980210836982	127.4149115786244
68.30999999999804	-169.530218176334	0.03910871686895138	10.11604876519901	0	0	0	-21.7838553708739	6.302535746439055	0	46.29498984657052	4.898789148368539	-1.180293057969496	-5.002943753025237	64.43779809129082	-14.89351513420215	102.4120266216924	127.4050116486782
68.31999999999805	-169.4806626638133	0.05293528895142987	10.14637151741889	0	0	0	-21.7838553708739	6.302535746439055	0	46.29498984657052	4.898789148368539	-1.180293057969496	-5.228442542197362	64.42434766684869	-14.65792783034112	102.4482550666602	127.3390216340973
68.32999999999805	-169.4389965062064	0.09500406250243439	10.12491749241864	0	0	0	-21.7838553708739	6.302535746439055	0	46.29498984657052	4.898789148368539	-1.180293057969496	-5.217235888824454	64.39917962292279	-14.62149679211855	102.4611264631205	127.3209396600885
68.33999999999806	-169.3919986237445	0.1086435236935497	10.14060757695107	0	0	0	-21.7838553708739	6.302535746439055	0	46.29498984657052	4.898789148368539	-1.180293057969496	-5.37758679408778	64.33137806808733	-14.40448295107663	102.4534150206951	127.283285658486
68.34999999999806	-169.3537074541842	0.1343113044538519	10.10964934474797	0	0	0	-21.7838553708739	6.302535746439055	0	46.29498984657052	4.898789148368539	-1.180293057969496	-5.362402006809504	64.29110849917087	-14.37488088443933	102.4642744023546	127.2586592087236
68.35999999999807	-169.3048142254582	0.1664369933618444	10.09771468383404	0	0	0	-21.7838553708739	6.302535746439055	0	46.29498984657052	4.898789148368539	-1.180293057969496	-5.353400538158449	64.22779122882231	-14.34684206034836	102.4685630394735	127.2177364694658
68.36999999999807	-169.2690682025656	0.1746210249918543	10.05986101827789	0	0	0	-21.7838553708739	6.302535746439055	0	46.29498984657052	4.898789148368539	-1.180293057969496	-5.332800795305845	64.17972819400877	-14.31997278442561	102.4783070937331	127.1915634511722
68.37999999999808	-169.2331972212725	0.1789680517976738	10.02218926776411	0	0	0	-21.7838553708739	6.302535746439055	0	46.29498984657052	4.898789148368539	-1.180293057969496	-5.310745026666738	64.12873093893995	-14.29939101362362	102.4841668027945	127.165678944069
68.38999999999808	-169.1972687875456	0.1759709824779116	9.982612153125531	0	0	0	-21.7838553708739	6.302535746439055	0	46.29498984657052	4.898789148368539	-1.180293057969496	-5.283395643822876	64.07750701804056	-14.28496554524768	102.4866463082064	127.1425308662106
68.39999999999809	-169.146043801387	0.2332588696722863	9.923285848602609	0	0	0	-21.7838553708739	6.302535746439055	0	46.29498984657052	4.898789148368539	-1.180293057969496	-4.961344267561525	63.92756476755917	-14.47283471115969	102.3808326580573	127.2171806949966
68.40999999999809	-169.1188026616217	0.2141535458272207	9.877705446430738	0	0	0	-21.7838553708739	6.302535746439055	0	46.29498984657052	4.898789148368539	-1.180293057969496	-4.933461807166815	63.88637894486911	-14.46278525802702	102.3873704019348	127.1996436047164
68.4199999999981	-169.0719296928424	0.2628947050053166	9.784877632584575	0	0	0	-21.7838553708739	6.302535746439055	0	46.29498984657052	4.898789148368539	-1.180293057969496	-4.55612342389255	63.79140988246865	-14.80088663800658	102.3800445347082	127.2670054717454
68.4299999999981	-169.0416863534508	0.2588868828013415	9.713245289693651	0	0	0	-21.7838553708739	6.302535746439055	0	46.29498984657052	4.898789148368539	-1.180293057969496	-4.382937537496288	63.74179474804243	-14.94421691348274	102.3767795725347	127.2846785348923
68.43999999999811	-169.0088642861093	0.2795009873307371	9.628774522451797	0	0	0	-21.7838553708739	6.302535746439055	0	46.29498984657052	4.898789148368539	-1.180293057969496	-4.129893688835936	63.6738658873064	-15.15008599153517	102.3606428259034	127.3251238685967
68.44999999999811	-168.9813398850369	0.2875784797459534	9.553203572227252	0	0	0	-21.7838553708739	6.302535746439055	0	46.29498984657052	4.898789148368539	-1.180293057969496	-3.892070978837163	63.60530445320658	-15.35847643728912	102.3564187923432	127.357386605634
68.45999999999812	-168.952810028148	0.2916098896545238	9.471375119044692	0	0	0	-21.7838553708739	6.302535746439055	0	46.29498984657052	4.898789148368539	-1.180293057969496	-3.67520804333337	63.54252449107845	-15.54291166822996	102.3493891508173	127.3924681965847
68.46999999999812	-168.9254669622904	0.3046362481181747	9.384739974198025	0	0	0	-21.7838553708739	6.302535746439055	0	46.29498984657052	4.898789148368539	-1.180293057969496	-3.443660134915437	63.47060897091605	-15.74044542340117	102.3371361154203	127.4354835603447
68.47999999999813	-168.9027858981838	0.331323234832417	9.303236137359795	0	0	0	-21.7838553708739	6.302535746439055	0	46.29498984657052	4.898789148368539	-1.180293057969496	-3.192354880393309	63.3807510981942	-15.96304772899528	102.3338392998398	127.4695774907646
68.48999999999813	-168.8912654229999	0.3101632212514465	9.244460507969954	0	0	0	-21.7838553708739	6.302535746439055	-8.082103817230515e-36	46.29498984657052	4.898789148368539	-1.180293057969496	-3.17210563107612	63.32213328579409	-15.96333060860207	102.3357348886669	127.4470671889953
68.49999999999814	-168.8670742130142	0.3592959757981392	9.145408689262309	0	0	0	-21.7838553708739	6.302535746439055	0	46.29498984657052	4.898789148368539	-1.180293057969496	-2.865282348772466	63.19120331206539	-16.2244187802311	102.298892836482	127.4999014793604
68.50999999999814	-168.8616870636954	0.3511810866618707	9.078150043493409	0	0	0	-21.7838553708739	6.302535746439055	0	46.29498984657052	4.898789148368539	-1.180293057969496	-2.854001043293583	63.11774296345985	-16.22027518007253	102.3022730531629	127.4683140652715
68.51999999999815	-168.8567237419314	0.352946919237137	9.001646852395334	0	0	0	-21.7838553708739	6.302535746439055	0	46.29498984657052	4.898789148368539	-1.180293057969496	-2.84342498372258	63.0288245983407	-16.2186832085741	102.3016804831493	127.4317386530245
68.52999999999815	-168.8536903093029	0.3668863116257037	8.918378183364323	0	0	0	-21.7838553708739	6.302535746439055	-2.155227684594804e-35	46.29498984657052	4.898789148368539	-1.180293057969496	-2.836139985404509	62.92121203511081	-16.21607371138277	102.2982935150497	127.3866007051861
68.53999999999816	-168.8386093133957	0.4145783293577262	8.850163590910739	0	0	0	-21.7838553708739	6.302535746439055	0	46.29498984657052	4.898789148368539	-1.180293057969496	-2.797953629533261	62.75029500643311	-16.21620781907691	102.2504840403475	127.3282508311295
68.54999999999816	-168.8519940331554	0.4460994979856419	8.744305158897072	0	0	0	-21.7838553708739	6.302535746439055	0	46.29498984657052	4.898789148368539	-1.180293057969496	-2.809670422457478	62.61301666121573	-16.19699760374001	102.2507519030735	127.264837182909
68.55999999999817	-168.860481786521	0.4577704660846444	8.683916185547689	0	0	0	-21.7838553708739	6.302535746439055	0	46.29498984657052	4.898789148368539	-1.180293057969496	-3.019014129744255	62.37838803283961	-15.79255920939281	102.0423422723159	127.1980574531046
68.56999999999817	-168.8724511295641	0.4727243350566208	8.601309919468338	0	0	0	-21.7838553708739	6.302535746439055	0	46.29498984657052	4.898789148368539	-1.180293057969496	-3.257518195924189	62.17324060002812	-15.50109747925122	101.9792517951445	127.0795779023631
68.57999999999818	-168.8877523048883	0.4967273907597972	8.510106634322632	0	0	0	-21.7838553708739	6.302535746439055	0	46.29498984657052	4.898789148368539	-1.180293057969496	-3.547713550039388	61.94581959134749	-15.13542080537332	101.8881509363695	126.9383260552683
68.58999999999818	-168.903094319283	0.5338320892743578	8.410328677894434	0	0	0	-21.7838553708739	6.302535746439055	0	46.29498984657052	4.898789148368539	-1.180293057969496	-3.857839626423395	61.7035496911064	-14.80093055004499	101.8420664912647	126.7574505468446
68.59999999999819	-168.929155135336	0.540463426629374	8.321784152441921	0	0	0	-21.7838553708739	6.302535746439055	0	46.29498984657052	4.898789148368539	-1.180293057969496	-4.299880034759795	61.42668738497287	-14.25701098528345	101.723575376602	126.5529341919114
68.60999999999819	-168.9489265143402	0.5631684441551863	8.21264185077014	0	0	0	-21.7838553708739	6.302535746439055	0	46.29498984657052	4.898789148368539	-1.180293057969496	-4.758408597733599	61.0986644054336	-13.70557377530629	101.6016162100695	126.3420788603975
